<mxfile host="app.diagrams.net" modified="2023-08-08T18:40:47.938Z" agent="Mozilla/5.0 (X11; Linux x86_64) AppleWebKit/537.36 (KHTML, like Gecko) Chrome/115.0.0.0 Safari/537.36" etag="jXPRQxH5wKuCyAPruQVn" version="21.6.7" type="device">
  <diagram name="Página-1" id="YomD8XgGIF6BL69bbpB6">
    <mxGraphModel dx="2776" dy="1147" grid="1" gridSize="10" guides="1" tooltips="1" connect="1" arrows="1" fold="1" page="1" pageScale="1" pageWidth="827" pageHeight="1169" math="0" shadow="0">
      <root>
        <mxCell id="0" />
        <mxCell id="1" parent="0" />
        <mxCell id="Y88Ll1_iV81cDovMWdpC-35" style="edgeStyle=orthogonalEdgeStyle;rounded=0;orthogonalLoop=1;jettySize=auto;html=1;entryX=1.003;entryY=0.425;entryDx=0;entryDy=0;entryPerimeter=0;" parent="1" source="7DwhyfkDimYaglJ3K84n-1" edge="1">
          <mxGeometry relative="1" as="geometry">
            <mxPoint x="622.46" y="1411.25" as="targetPoint" />
          </mxGeometry>
        </mxCell>
        <mxCell id="Y88Ll1_iV81cDovMWdpC-4" value="" style="group" parent="1" connectable="0" vertex="1">
          <mxGeometry x="-200" y="550" width="920" height="1160" as="geometry" />
        </mxCell>
        <mxCell id="7DwhyfkDimYaglJ3K84n-9" value="" style="outlineConnect=0;dashed=0;verticalLabelPosition=bottom;verticalAlign=top;align=center;html=1;shape=mxgraph.aws3.ec2;fillColor=#F58534;gradientColor=none;" parent="Y88Ll1_iV81cDovMWdpC-4" vertex="1">
          <mxGeometry x="341" y="-45.5" width="76.5" height="93" as="geometry" />
        </mxCell>
        <mxCell id="7DwhyfkDimYaglJ3K84n-10" value="Deep Learning AMI:&lt;br&gt;instância de processamento de imagens" style="text;html=1;strokeColor=none;fillColor=none;align=center;verticalAlign=middle;whiteSpace=wrap;rounded=0;" parent="Y88Ll1_iV81cDovMWdpC-4" vertex="1">
          <mxGeometry x="298.75" y="50" width="160.99" height="69.5" as="geometry" />
        </mxCell>
        <mxCell id="7DwhyfkDimYaglJ3K84n-11" value="" style="shape=image;verticalLabelPosition=bottom;labelBackgroundColor=default;verticalAlign=top;aspect=fixed;imageAspect=0;image=https://upload.wikimedia.org/wikipedia/commons/b/bc/Amazon-S3-Logo.svg;" parent="Y88Ll1_iV81cDovMWdpC-4" vertex="1">
          <mxGeometry x="689.99" y="-60" width="101.98" height="122" as="geometry" />
        </mxCell>
        <mxCell id="7DwhyfkDimYaglJ3K84n-12" style="edgeStyle=orthogonalEdgeStyle;rounded=0;orthogonalLoop=1;jettySize=auto;html=1;" parent="Y88Ll1_iV81cDovMWdpC-4" source="7DwhyfkDimYaglJ3K84n-9" target="7DwhyfkDimYaglJ3K84n-11" edge="1">
          <mxGeometry relative="1" as="geometry" />
        </mxCell>
        <mxCell id="7DwhyfkDimYaglJ3K84n-13" value="S3 com pinturas" style="text;html=1;strokeColor=none;fillColor=none;align=center;verticalAlign=middle;whiteSpace=wrap;rounded=0;" parent="Y88Ll1_iV81cDovMWdpC-4" vertex="1">
          <mxGeometry x="680.98" y="70.5" width="120" height="60" as="geometry" />
        </mxCell>
        <mxCell id="7DwhyfkDimYaglJ3K84n-17" value="" style="outlineConnect=0;dashed=0;verticalLabelPosition=bottom;verticalAlign=top;align=center;html=1;shape=mxgraph.aws3.ec2;fillColor=#F58534;gradientColor=none;" parent="Y88Ll1_iV81cDovMWdpC-4" vertex="1">
          <mxGeometry x="148.75" y="113.5" width="76.5" height="93" as="geometry" />
        </mxCell>
        <mxCell id="7DwhyfkDimYaglJ3K84n-15" style="edgeStyle=orthogonalEdgeStyle;rounded=0;orthogonalLoop=1;jettySize=auto;html=1;" parent="Y88Ll1_iV81cDovMWdpC-4" source="7DwhyfkDimYaglJ3K84n-9" target="7DwhyfkDimYaglJ3K84n-17" edge="1">
          <mxGeometry relative="1" as="geometry">
            <mxPoint x="178.6642857142856" y="98" as="targetPoint" />
          </mxGeometry>
        </mxCell>
        <mxCell id="7DwhyfkDimYaglJ3K84n-18" value="" style="shape=image;verticalLabelPosition=bottom;labelBackgroundColor=default;verticalAlign=top;aspect=fixed;imageAspect=0;image=https://upload.wikimedia.org/wikipedia/commons/thumb/9/93/MongoDB_Logo.svg/2560px-MongoDB_Logo.svg.png;" parent="Y88Ll1_iV81cDovMWdpC-4" vertex="1">
          <mxGeometry x="188.75" y="230" width="111.43" height="30" as="geometry" />
        </mxCell>
        <mxCell id="7DwhyfkDimYaglJ3K84n-20" value="" style="sketch=0;aspect=fixed;html=1;points=[];align=center;image;fontSize=12;image=img/lib/mscae/Docker.svg;" parent="Y88Ll1_iV81cDovMWdpC-4" vertex="1">
          <mxGeometry x="68.75" y="190" width="97.56" height="80" as="geometry" />
        </mxCell>
        <mxCell id="7DwhyfkDimYaglJ3K84n-21" value="EC2 de armazenamento de dados processados" style="text;html=1;strokeColor=none;fillColor=none;align=center;verticalAlign=middle;whiteSpace=wrap;rounded=0;" parent="Y88Ll1_iV81cDovMWdpC-4" vertex="1">
          <mxGeometry x="98.74999999999999" y="280" width="160.99" height="69.5" as="geometry" />
        </mxCell>
        <mxCell id="Y88Ll1_iV81cDovMWdpC-56" value="" style="rounded=1;whiteSpace=wrap;html=1;fillColor=none;" parent="Y88Ll1_iV81cDovMWdpC-4" vertex="1">
          <mxGeometry x="-20" y="-110" width="880" height="560" as="geometry" />
        </mxCell>
        <mxCell id="Y88Ll1_iV81cDovMWdpC-69" value="" style="rounded=1;whiteSpace=wrap;html=1;fillColor=none;" parent="Y88Ll1_iV81cDovMWdpC-4" vertex="1">
          <mxGeometry x="310" y="600" width="540" height="560" as="geometry" />
        </mxCell>
        <mxCell id="Y88Ll1_iV81cDovMWdpC-53" style="edgeStyle=orthogonalEdgeStyle;rounded=0;orthogonalLoop=1;jettySize=auto;html=1;entryX=1;entryY=0.5;entryDx=0;entryDy=0;entryPerimeter=0;" parent="1" source="Y88Ll1_iV81cDovMWdpC-10" target="7DwhyfkDimYaglJ3K84n-17" edge="1">
          <mxGeometry relative="1" as="geometry">
            <Array as="points">
              <mxPoint x="190" y="1411" />
              <mxPoint x="190" y="710" />
            </Array>
          </mxGeometry>
        </mxCell>
        <mxCell id="Y88Ll1_iV81cDovMWdpC-10" value="" style="outlineConnect=0;dashed=0;verticalLabelPosition=bottom;verticalAlign=top;align=center;html=1;shape=mxgraph.aws3.ec2;fillColor=#F58534;gradientColor=none;" parent="1" vertex="1">
          <mxGeometry x="350" y="1364.5" width="76.5" height="93" as="geometry" />
        </mxCell>
        <mxCell id="Y88Ll1_iV81cDovMWdpC-18" value="" style="group" parent="1" connectable="0" vertex="1">
          <mxGeometry x="740" y="1045.5" width="860" height="680" as="geometry" />
        </mxCell>
        <mxCell id="7DwhyfkDimYaglJ3K84n-3" value="voyage web page" style="rounded=1;whiteSpace=wrap;html=1;" parent="Y88Ll1_iV81cDovMWdpC-18" vertex="1">
          <mxGeometry x="175" y="335.5" width="120" height="60" as="geometry" />
        </mxCell>
        <mxCell id="7DwhyfkDimYaglJ3K84n-1" value="" style="rounded=1;whiteSpace=wrap;html=1;fillColor=none;" parent="Y88Ll1_iV81cDovMWdpC-18" vertex="1">
          <mxGeometry x="110" y="240.5" width="250" height="250" as="geometry" />
        </mxCell>
        <mxCell id="7DwhyfkDimYaglJ3K84n-2" value="Camada web" style="text;html=1;strokeColor=none;fillColor=none;align=center;verticalAlign=middle;whiteSpace=wrap;rounded=0;" parent="Y88Ll1_iV81cDovMWdpC-18" vertex="1">
          <mxGeometry x="205" y="200.5" width="60" height="30" as="geometry" />
        </mxCell>
        <mxCell id="Y88Ll1_iV81cDovMWdpC-37" value="" style="shape=image;html=1;verticalAlign=top;verticalLabelPosition=bottom;labelBackgroundColor=#ffffff;imageAspect=0;aspect=fixed;image=https://cdn3.iconfinder.com/data/icons/picons-social/57/10-html5-128.png" parent="Y88Ll1_iV81cDovMWdpC-18" vertex="1">
          <mxGeometry x="261" y="410" width="42.5" height="42.5" as="geometry" />
        </mxCell>
        <mxCell id="Y88Ll1_iV81cDovMWdpC-38" value="" style="shape=image;html=1;verticalAlign=top;verticalLabelPosition=bottom;labelBackgroundColor=#ffffff;imageAspect=0;aspect=fixed;image=https://cdn1.iconfinder.com/data/icons/bootstrap-vol-3/16/filetype-css-128.png" parent="Y88Ll1_iV81cDovMWdpC-18" vertex="1">
          <mxGeometry x="222.5" y="410" width="42.5" height="42.5" as="geometry" />
        </mxCell>
        <mxCell id="Y88Ll1_iV81cDovMWdpC-39" value="" style="shape=image;html=1;verticalAlign=top;verticalLabelPosition=bottom;labelBackgroundColor=#ffffff;imageAspect=0;aspect=fixed;image=https://cdn1.iconfinder.com/data/icons/ionicons-fill-vol-2/512/logo-javascript-128.png" parent="Y88Ll1_iV81cDovMWdpC-18" vertex="1">
          <mxGeometry x="175" y="414.5" width="38" height="38" as="geometry" />
        </mxCell>
        <mxCell id="Y88Ll1_iV81cDovMWdpC-71" value="" style="shape=image;html=1;verticalAlign=top;verticalLabelPosition=bottom;labelBackgroundColor=#ffffff;imageAspect=0;aspect=fixed;image=https://cdn0.iconfinder.com/data/icons/long-shadow-web-icons/512/nodejs-128.png" parent="Y88Ll1_iV81cDovMWdpC-18" vertex="1">
          <mxGeometry x="177.5" y="417" width="33" height="33" as="geometry" />
        </mxCell>
        <mxCell id="Y88Ll1_iV81cDovMWdpC-28" style="edgeStyle=orthogonalEdgeStyle;rounded=0;orthogonalLoop=1;jettySize=auto;html=1;entryX=1;entryY=0.5;entryDx=0;entryDy=0;entryPerimeter=0;" parent="1" source="Y88Ll1_iV81cDovMWdpC-23" target="Y88Ll1_iV81cDovMWdpC-10" edge="1">
          <mxGeometry relative="1" as="geometry" />
        </mxCell>
        <mxCell id="Y88Ll1_iV81cDovMWdpC-29" style="edgeStyle=orthogonalEdgeStyle;rounded=0;orthogonalLoop=1;jettySize=auto;html=1;entryX=1;entryY=0.5;entryDx=0;entryDy=0;entryPerimeter=0;" parent="1" source="Y88Ll1_iV81cDovMWdpC-23" target="Y88Ll1_iV81cDovMWdpC-26" edge="1">
          <mxGeometry relative="1" as="geometry" />
        </mxCell>
        <mxCell id="Y88Ll1_iV81cDovMWdpC-30" style="edgeStyle=orthogonalEdgeStyle;rounded=0;orthogonalLoop=1;jettySize=auto;html=1;entryX=1;entryY=0.5;entryDx=0;entryDy=0;entryPerimeter=0;" parent="1" source="Y88Ll1_iV81cDovMWdpC-23" target="Y88Ll1_iV81cDovMWdpC-27" edge="1">
          <mxGeometry relative="1" as="geometry" />
        </mxCell>
        <mxCell id="Y88Ll1_iV81cDovMWdpC-23" value="" style="outlineConnect=0;dashed=0;verticalLabelPosition=bottom;verticalAlign=top;align=center;html=1;shape=mxgraph.aws3.classic_load_balancer;fillColor=#F58534;gradientColor=none;" parent="1" vertex="1">
          <mxGeometry x="540" y="1375" width="69" height="72" as="geometry" />
        </mxCell>
        <mxCell id="Y88Ll1_iV81cDovMWdpC-54" style="edgeStyle=orthogonalEdgeStyle;rounded=0;orthogonalLoop=1;jettySize=auto;html=1;entryX=1;entryY=0.5;entryDx=0;entryDy=0;entryPerimeter=0;" parent="1" source="Y88Ll1_iV81cDovMWdpC-26" target="7DwhyfkDimYaglJ3K84n-17" edge="1">
          <mxGeometry relative="1" as="geometry">
            <mxPoint x="30" y="710" as="targetPoint" />
            <Array as="points">
              <mxPoint x="390" y="710" />
            </Array>
          </mxGeometry>
        </mxCell>
        <mxCell id="Y88Ll1_iV81cDovMWdpC-26" value="" style="outlineConnect=0;dashed=0;verticalLabelPosition=bottom;verticalAlign=top;align=center;html=1;shape=mxgraph.aws3.ec2;fillColor=#F58534;gradientColor=none;" parent="1" vertex="1">
          <mxGeometry x="350" y="1220" width="76.5" height="93" as="geometry" />
        </mxCell>
        <mxCell id="Y88Ll1_iV81cDovMWdpC-55" style="edgeStyle=orthogonalEdgeStyle;rounded=0;orthogonalLoop=1;jettySize=auto;html=1;entryX=1;entryY=0.5;entryDx=0;entryDy=0;entryPerimeter=0;" parent="1" source="Y88Ll1_iV81cDovMWdpC-27" target="7DwhyfkDimYaglJ3K84n-17" edge="1">
          <mxGeometry relative="1" as="geometry">
            <mxPoint x="30" y="710" as="targetPoint" />
            <Array as="points">
              <mxPoint x="190" y="1565" />
              <mxPoint x="190" y="710" />
            </Array>
          </mxGeometry>
        </mxCell>
        <mxCell id="Y88Ll1_iV81cDovMWdpC-27" value="" style="outlineConnect=0;dashed=0;verticalLabelPosition=bottom;verticalAlign=top;align=center;html=1;shape=mxgraph.aws3.ec2;fillColor=#F58534;gradientColor=none;" parent="1" vertex="1">
          <mxGeometry x="350" y="1518.25" width="76.5" height="93" as="geometry" />
        </mxCell>
        <mxCell id="Y88Ll1_iV81cDovMWdpC-11" value="Deep Learning AMI:&lt;br&gt;instância IA de classificação" style="text;html=1;strokeColor=none;fillColor=none;align=center;verticalAlign=middle;whiteSpace=wrap;rounded=0;" parent="1" vertex="1">
          <mxGeometry x="310" y="1610" width="160.99" height="69.5" as="geometry" />
        </mxCell>
        <mxCell id="Y88Ll1_iV81cDovMWdpC-7" value="Arquitetura de processamento" style="text;html=1;strokeColor=none;fillColor=none;align=center;verticalAlign=middle;whiteSpace=wrap;rounded=0;" parent="1" vertex="1">
          <mxGeometry x="-122.5" y="370" width="120" height="30" as="geometry" />
        </mxCell>
        <mxCell id="Y88Ll1_iV81cDovMWdpC-1" value="" style="outlineConnect=0;dashed=0;verticalLabelPosition=bottom;verticalAlign=top;align=center;html=1;shape=mxgraph.aws3.vpc;fillColor=#F58534;gradientColor=none;" parent="1" vertex="1">
          <mxGeometry x="-200" y="350" width="67.5" height="81" as="geometry" />
        </mxCell>
        <mxCell id="Y88Ll1_iV81cDovMWdpC-20" value="Arquitetura de consumo" style="text;html=1;strokeColor=none;fillColor=none;align=center;verticalAlign=middle;whiteSpace=wrap;rounded=0;" parent="1" vertex="1">
          <mxGeometry x="670" y="1095.5" width="120" height="30" as="geometry" />
        </mxCell>
      </root>
    </mxGraphModel>
  </diagram>
</mxfile>
